<svg xmlns="http://www.w3.org/2000/svg" width="20" height="20" fill="currentColor"><path d="M 10 0.247 C 4.475 0.247 0 4.725 0 10.248 C 0 14.667 2.865 18.414 6.838 19.735 C 7.338 19.829 7.521 19.52 7.521 19.254 C 7.521 19.017 7.513 18.388 7.508 17.554 C 4.727 18.158 4.14 16.213 4.14 16.213 C 3.685 15.058 3.028 14.75 3.028 14.75 C 2.122 14.13 3.098 14.143 3.098 14.143 C 4.102 14.213 4.629 15.173 4.629 15.173 C 5.521 16.702 6.97 16.26 7.542 16.004 C 7.632 15.358 7.889 14.917 8.175 14.667 C 5.954 14.417 3.62 13.557 3.62 9.725 C 3.62 8.633 4.008 7.742 4.649 7.042 C 4.537 6.789 4.199 5.773 4.737 4.395 C 4.737 4.395 5.574 4.127 7.487 5.42 C 8.287 5.198 9.137 5.088 9.987 5.083 C 10.837 5.088 11.687 5.198 12.487 5.42 C 14.387 4.127 15.224 4.395 15.224 4.395 C 15.762 5.773 15.424 6.789 15.324 7.042 C 15.962 7.742 16.349 8.633 16.349 9.725 C 16.349 13.567 14.012 14.413 11.787 14.658 C 12.137 14.958 12.462 15.572 12.462 16.508 C 12.462 17.847 12.449 18.922 12.449 19.247 C 12.449 19.509 12.624 19.822 13.137 19.722 C 17.138 18.41 20 14.66 20 10.248 C 20 4.725 15.522 0.248 10 0.248" fill="currentColor"></path></svg>