<svg xmlns="http://www.w3.org/2000/svg" width="20" height="20" fill="currentColor" overflow="visible"><path d="M 17.039 17.043 L 14.078 17.043 L 14.078 12.403 C 14.078 11.296 14.055 9.872 12.534 9.872 C 10.99 9.872 10.754 11.076 10.754 12.321 L 10.754 17.043 L 7.793 17.043 L 7.793 7.5 L 10.638 7.5 L 10.638 8.801 L 10.676 8.801 C 11.073 8.051 12.04 7.259 13.484 7.259 C 16.485 7.259 17.04 9.234 17.04 11.805 L 17.04 17.043 Z M 4.448 6.194 C 3.991 6.194 3.554 6.013 3.231 5.69 C 2.909 5.367 2.728 4.93 2.728 4.473 C 2.729 3.523 3.499 2.754 4.449 2.754 C 5.399 2.755 6.169 3.525 6.168 4.475 C 6.168 5.425 5.397 6.195 4.448 6.194 Z M 5.933 17.043 L 2.963 17.043 L 2.963 7.5 L 5.933 7.5 Z M 18.521 0 L 1.476 0 C 0.66 0 0 0.645 0 1.441 L 0 18.559 C 0 19.356 0.66 20 1.476 20 L 18.518 20 C 19.333 20 20 19.356 20 18.559 L 20 1.441 C 20 0.645 19.333 0 18.518 0 Z" fill="currentColor"></path></svg>